<svg width="94" height="79" viewBox="0 0 94 79" fill="none" xmlns="http://www.w3.org/2000/svg">
<rect width="94" height="50" rx="25" fill="#70FFD7"/>
<path d="M36.5365 78.1002C36.5365 78.1002 30.8577 80.4163 37.5 77.6168C40.499 76.3528 36.5365 78.1002 36.5365 78.1002ZM44.3033 13.6053L51.9646 21.3575H33.4354C32.0858 21.3575 31 22.5032 31 23.9273V25.6405C31 27.0646 32.0858 28.2103 33.4354 28.2103H51.9646L44.3033 35.9625C43.319 36.9583 43.2987 38.6179 44.2627 39.6351L45.3789 40.8022C46.3328 41.8088 47.8752 41.8088 48.8189 40.8022L62.2846 26.6042C63.2385 25.5977 63.2385 23.9701 62.2846 22.9744L48.8189 8.75487C47.8651 7.74838 46.3227 7.74838 45.3789 8.75487L44.2627 9.92198C43.2987 10.9499 43.319 12.6096 44.3033 13.6053Z" fill="#458E7A"/>
</svg>
