<svg width="128" height="170" viewBox="0 0 128 170" fill="none" xmlns="http://www.w3.org/2000/svg">
<path d="M16 21.25H42.6667C42.6667 9.5293 52.2333 0 64 0C75.7667 0 85.3333 9.5293 85.3333 21.25H112C120.833 21.25 128 28.3887 128 37.1875V154.062C128 162.861 120.833 170 112 170H16C7.16666 170 -3.8147e-06 162.861 -3.8147e-06 154.062V37.1875C-3.8147e-06 28.3887 7.16666 21.25 16 21.25ZM96 140.781C100.433 140.781 104 137.229 104 132.812C104 128.396 100.433 124.844 96 124.844C91.5667 124.844 88 128.396 88 132.812C88 137.229 91.5667 140.781 96 140.781ZM96 108.906C100.433 108.906 104 105.354 104 100.938C104 96.5215 100.433 92.9688 96 92.9688C91.5667 92.9688 88 96.5215 88 100.938C88 105.354 91.5667 108.906 96 108.906ZM96 77.0312C100.433 77.0312 104 73.4785 104 69.0625C104 64.6465 100.433 61.0938 96 61.0938C91.5667 61.0938 88 64.6465 88 69.0625C88 73.4785 91.5667 77.0312 96 77.0312ZM64 13.2812C59.5667 13.2812 56 16.834 56 21.25C56 25.666 59.5667 29.2188 64 29.2188C68.4333 29.2188 72 25.666 72 21.25C72 16.834 68.4333 13.2812 64 13.2812ZM21.3333 135.469C21.3333 136.93 22.5333 138.125 24 138.125H72C73.4667 138.125 74.6667 136.93 74.6667 135.469V130.156C74.6667 128.695 73.4667 127.5 72 127.5H24C22.5333 127.5 21.3333 128.695 21.3333 130.156V135.469ZM21.3333 103.594C21.3333 105.055 22.5333 106.25 24 106.25H72C73.4667 106.25 74.6667 105.055 74.6667 103.594V98.2812C74.6667 96.8203 73.4667 95.625 72 95.625H24C22.5333 95.625 21.3333 96.8203 21.3333 98.2812V103.594ZM21.3333 71.7188C21.3333 73.1797 22.5333 74.375 24 74.375H72C73.4667 74.375 74.6667 73.1797 74.6667 71.7188V66.4062C74.6667 64.9453 73.4667 63.75 72 63.75H24C22.5333 63.75 21.3333 64.9453 21.3333 66.4062V71.7188Z" fill="url(#paint0_linear)"/>
<defs>
<linearGradient id="paint0_linear" x1="136" y1="33.5" x2="-6.49999" y2="201.5" gradientUnits="userSpaceOnUse">
<stop offset="0.317612" stop-color="#D29BEC"/>
<stop offset="1" stop-color="#41CCFF" stop-opacity="0.78"/>
</linearGradient>
</defs>
</svg>
