<svg width="96" height="96" viewBox="0 0 96 96" fill="none" xmlns="http://www.w3.org/2000/svg">
<path d="M95.6602 47.8021C95.6602 74.0357 74.3937 95.3021 48.1602 95.3021C21.9266 95.3021 0.660156 74.0357 0.660156 47.8021C0.660156 21.5686 21.9266 0.302124 48.1602 0.302124C74.3937 0.302124 95.6602 21.5686 95.6602 47.8021ZM8.27014 47.8021C8.27014 69.8328 26.1295 87.6921 48.1602 87.6921C70.1908 87.6921 88.0502 69.8328 88.0502 47.8021C88.0502 25.7715 70.1908 7.91211 48.1602 7.91211C26.1295 7.91211 8.27014 25.7715 8.27014 47.8021Z" fill="url(#paint0_linear)"/>
<path d="M39.296 69.6545L38.8172 66.5347C41.8574 66.0535 43.911 65.4927 44.9779 64.8523C46.0448 64.2118 46.5785 63.2516 46.579 61.9716L46.5888 37.4116C46.5898 34.745 46.4571 33.145 46.1907 32.6118C45.9776 32.0785 45.3377 31.8121 44.271 31.8126C43.2577 31.813 41.471 31.947 38.9109 32.2147L38.2721 29.1749C39.8723 28.481 42.2726 27.7867 45.4729 27.0921C48.6732 26.3442 51.1533 25.9432 52.9134 25.8891L53.793 26.6888L53.7783 63.8888C53.778 64.5288 53.9112 64.9554 54.1777 65.1686C54.4977 65.3285 54.8976 65.4617 55.3776 65.5682L61.5372 66.5257L61.216 69.6459L39.296 69.6545Z" fill="black"/>
<defs>
<linearGradient id="paint0_linear" x1="15.174" y1="12.1771" x2="85.7643" y2="77.4896" gradientUnits="userSpaceOnUse">
<stop stop-color="#595B85"/>
<stop offset="0.466667" stop-color="#595B85" stop-opacity="0.32"/>
<stop offset="1" stop-color="#595B85" stop-opacity="0"/>
</linearGradient>
</defs>
</svg>
