<svg width="134" height="134" viewBox="0 0 134 134" fill="none" xmlns="http://www.w3.org/2000/svg">
<path d="M43.1846 103.494C41.889 104.102 40.3932 103.192 40.3371 101.762L37.1972 21.7791C37.1348 20.1899 38.8625 19.1672 40.2257 19.9862L112.982 63.701C114.289 64.4861 114.272 66.3861 112.952 67.1478L79.2629 86.5784L43.1846 103.494Z" fill="white"/>
<path d="M67 0C29.9879 0 0 29.9879 0 67C0 104.012 29.9879 134 67 134C104.012 134 134 104.012 134 67C134 29.9879 104.012 0 67 0ZM98.2577 73.4839L50.7093 100.77C46.4407 103.148 41.0645 100.095 41.0645 95.0968V38.9032C41.0645 33.9323 46.4137 30.8524 50.7093 33.2298L98.2577 62.1371C102.688 64.6226 102.688 71.0254 98.2577 73.4839Z" fill="#08FFBA"/>
</svg>
