<svg width="60" height="404" viewBox="0 0 60 404" fill="none" xmlns="http://www.w3.org/2000/svg">
<path d="M19.2 403.177C29.8039 403.177 38.4 394.9 38.4 384.69C38.4 374.48 29.8039 366.203 19.2 366.203C8.59613 366.203 0 374.48 0 384.69C0 394.9 8.59613 403.177 19.2 403.177Z" fill="url(#paint0_linear)"/>
<path d="M13.8 351.375C20.8692 351.375 26.6 345.857 26.6 339.05C26.6 332.244 20.8692 326.726 13.8 326.726C6.73075 326.726 1 332.244 1 339.05C1 345.857 6.73075 351.375 13.8 351.375Z" fill="#35517A"/>
<path d="M34.8 296.491C41.8692 296.491 47.6 290.974 47.6 284.167C47.6 277.36 41.8692 271.842 34.8 271.842C27.7308 271.842 22 277.36 22 284.167C22 290.974 27.7308 296.491 34.8 296.491Z" fill="#35517A"/>
<path d="M29.8 177.096C36.8692 177.096 42.6 171.578 42.6 164.771C42.6 157.964 36.8692 152.446 29.8 152.446C22.7308 152.446 17 157.964 17 164.771C17 171.578 22.7308 177.096 29.8 177.096Z" fill="#35517A"/>
<path d="M15.8 111.621C22.8692 111.621 28.6 106.103 28.6 99.2959C28.6 92.4892 22.8692 86.9712 15.8 86.9712C8.73075 86.9712 3 92.4892 3 99.2959C3 106.103 8.73075 111.621 15.8 111.621Z" fill="#35517A"/>
<path d="M29 75.4168C33.4183 75.4168 37 71.9681 37 67.7138C37 63.4596 33.4183 60.0109 29 60.0109C24.5817 60.0109 21 63.4596 21 67.7138C21 71.9681 24.5817 75.4168 29 75.4168Z" fill="#35517A"/>
<path d="M18 267.991C20.2091 267.991 22 266.266 22 264.139C22 262.012 20.2091 260.288 18 260.288C15.7909 260.288 14 262.012 14 264.139C14 266.266 15.7909 267.991 18 267.991Z" fill="#35517A"/>
<path d="M50 256.436C52.2091 256.436 54 254.712 54 252.585C54 250.458 52.2091 248.733 50 248.733C47.7909 248.733 46 250.458 46 252.585C46 254.712 47.7909 256.436 50 256.436Z" fill="#35517A"/>
<path d="M34 233.327C36.2091 233.327 38 231.603 38 229.476C38 227.349 36.2091 225.624 34 225.624C31.7909 225.624 30 227.349 30 229.476C30 231.603 31.7909 233.327 34 233.327Z" fill="#35517A"/>
<path d="M39 223.699C41.2091 223.699 43 221.974 43 219.847C43 217.72 41.2091 215.996 39 215.996C36.7909 215.996 35 217.72 35 219.847C35 221.974 36.7909 223.699 39 223.699Z" fill="#35517A"/>
<path d="M47 219.847C49.2091 219.847 51 218.123 51 215.996C51 213.869 49.2091 212.144 47 212.144C44.7909 212.144 43 213.869 43 215.996C43 218.123 44.7909 219.847 47 219.847Z" fill="#35517A"/>
<path d="M38 190.961C40.2091 190.961 42 189.237 42 187.11C42 184.982 40.2091 183.258 38 183.258C35.7909 183.258 34 184.982 34 187.11C34 189.237 35.7909 190.961 38 190.961Z" fill="#35517A"/>
<path d="M52 175.555C54.2091 175.555 56 173.831 56 171.704C56 169.577 54.2091 167.852 52 167.852C49.7909 167.852 48 169.577 48 171.704C48 173.831 49.7909 175.555 52 175.555Z" fill="#35517A"/>
<path d="M39 135.115C41.2091 135.115 43 133.39 43 131.263C43 129.136 41.2091 127.412 39 127.412C36.7909 127.412 35 129.136 35 131.263C35 133.39 36.7909 135.115 39 135.115Z" fill="#35517A"/>
<path d="M56 108.154C58.2091 108.154 60 106.43 60 104.303C60 102.176 58.2091 100.451 56 100.451C53.7909 100.451 52 102.176 52 104.303C52 106.43 53.7909 108.154 56 108.154Z" fill="#35517A"/>
<path d="M27 86.9712C29.2091 86.9712 31 85.2468 31 83.1197C31 80.9926 29.2091 79.2682 27 79.2682C24.7909 79.2682 23 80.9926 23 83.1197C23 85.2468 24.7909 86.9712 27 86.9712Z" fill="#35517A"/>
<path d="M38 90.8226C40.2091 90.8226 42 89.0983 42 86.9712C42 84.8441 40.2091 83.1198 38 83.1198C35.7909 83.1198 34 84.8441 34 86.9712C34 89.0983 35.7909 90.8226 38 90.8226Z" fill="#35517A"/>
<path d="M43 58.0851C45.2091 58.0851 47 56.3608 47 54.2336C47 52.1065 45.2091 50.3821 43 50.3821C40.7909 50.3821 39 52.1065 39 54.2336C39 56.3608 40.7909 58.0851 43 58.0851Z" fill="#35517A"/>
<path d="M37 32.0876C39.2091 32.0876 41 30.3633 41 28.2362C41 26.1091 39.2091 24.3847 37 24.3847C34.7909 24.3847 33 26.1091 33 28.2362C33 30.3633 34.7909 32.0876 37 32.0876Z" fill="#35517A"/>
<path d="M23 19.5704C25.2091 19.5704 27 17.846 27 15.7189C27 13.5918 25.2091 11.8674 23 11.8674C20.7909 11.8674 19 13.5918 19 15.7189C19 17.846 20.7909 19.5704 23 19.5704Z" fill="#35517A"/>
<path d="M34 8.01593C36.2091 8.01593 38 6.29157 38 4.16446C38 2.03735 36.2091 0.312988 34 0.312988C31.7909 0.312988 30 2.03735 30 4.16446C30 6.29157 31.7909 8.01593 34 8.01593Z" fill="#35517A"/>
<path d="M48 154.372C50.2091 154.372 52 152.648 52 150.521C52 148.393 50.2091 146.669 48 146.669C45.7909 146.669 44 148.393 44 150.521C44 152.648 45.7909 154.372 48 154.372Z" fill="#35517A"/>
<path d="M17 127.412C19.2091 127.412 21 125.687 21 123.56C21 121.433 19.2091 119.709 17 119.709C14.7909 119.709 13 121.433 13 123.56C13 125.687 14.7909 127.412 17 127.412Z" fill="#35517A"/>
<path d="M15 158.224C17.2091 158.224 19 156.499 19 154.372C19 152.245 17.2091 150.521 15 150.521C12.7909 150.521 11 152.245 11 154.372C11 156.499 12.7909 158.224 15 158.224Z" fill="#35517A"/>
<path d="M47 219.847C49.2091 219.847 51 218.123 51 215.996C51 213.869 49.2091 212.144 47 212.144C44.7909 212.144 43 213.869 43 215.996C43 218.123 44.7909 219.847 47 219.847Z" fill="#35517A"/>
<path d="M38 350.797C42.4183 350.797 46 347.349 46 343.094C46 338.84 42.4183 335.391 38 335.391C33.5817 335.391 30 338.84 30 343.094C30 347.349 33.5817 350.797 38 350.797Z" fill="#35517A"/>
<path d="M35 319.986C39.4183 319.986 43 316.537 43 312.283C43 308.028 39.4183 304.58 35 304.58C30.5817 304.58 27 308.028 27 312.283C27 316.537 30.5817 319.986 35 319.986Z" fill="#35517A"/>
<path d="M22 215.996C26.4183 215.996 30 212.547 30 208.293C30 204.038 26.4183 200.59 22 200.59C17.5817 200.59 14 204.038 14 208.293C14 212.547 17.5817 215.996 22 215.996Z" fill="#35517A"/>
<path d="M38 208.293C42.4183 208.293 46 204.844 46 200.59C46 196.336 42.4183 192.887 38 192.887C33.5817 192.887 30 196.336 30 200.59C30 204.844 33.5817 208.293 38 208.293Z" fill="#35517A"/>
<path d="M25 145.706C29.4183 145.706 33 142.257 33 138.003C33 133.749 29.4183 130.3 25 130.3C20.5817 130.3 17 133.749 17 138.003C17 142.257 20.5817 145.706 25 145.706Z" fill="#35517A"/>
<path d="M41 119.709C45.4183 119.709 49 116.26 49 112.006C49 107.752 45.4183 104.303 41 104.303C36.5817 104.303 33 107.752 33 112.006C33 116.26 36.5817 119.709 41 119.709Z" fill="#35517A"/>
<path d="M22 50.3821C26.4183 50.3821 30 46.9334 30 42.6792C30 38.425 26.4183 34.9763 22 34.9763C17.5817 34.9763 14 38.425 14 42.6792C14 46.9334 17.5817 50.3821 22 50.3821Z" fill="#35517A"/>
<path d="M11 319.986C15.4183 319.986 19 316.537 19 312.283C19 308.028 15.4183 304.58 11 304.58C6.58172 304.58 3 308.028 3 312.283C3 316.537 6.58172 319.986 11 319.986Z" fill="#35517A"/>
<path d="M30 264.139C34.4183 264.139 38 260.69 38 256.436C38 252.182 34.4183 248.733 30 248.733C25.5817 248.733 22 252.182 22 256.436C22 260.69 25.5817 264.139 30 264.139Z" fill="#35517A"/>
<defs>
<linearGradient id="paint0_linear" x1="19.2" y1="366.203" x2="19.2" y2="403.177" gradientUnits="userSpaceOnUse">
<stop stop-color="#35517A"/>
<stop offset="1" stop-color="#A7C8F9" stop-opacity="0"/>
</linearGradient>
</defs>
</svg>
