<svg width="124" height="136" viewBox="0 0 124 136" fill="none" xmlns="http://www.w3.org/2000/svg">
<path d="M87.4984 55.6898L76.7744 55.6913C76.3646 62.8018 74.9782 69.1996 72.8733 74.2138C80.4758 70.7299 86.0487 63.9027 87.4984 55.6898ZM87.4996 47.2719C86.0496 39.0594 80.4814 32.2338 72.8799 28.7519C74.9861 33.7655 76.3678 40.1629 76.7756 47.2734L87.4996 47.2719ZM61.6102 26.5753C59.5002 28.5354 55.9108 35.6306 55.1793 47.2763L68.0378 47.2746C67.307 35.6317 63.7196 28.5348 61.6102 26.5753ZM50.3399 28.755C42.7373 32.2389 37.1644 39.0661 35.7147 47.279L46.4388 47.2775C46.8486 40.167 48.2322 33.7692 50.3399 28.755ZM50.3333 74.2169C48.227 69.2032 46.8453 62.8058 46.4375 55.6954L35.7135 55.6969C37.1608 63.9094 42.7317 70.735 50.3333 74.2169ZM68.0338 55.6925L55.1754 55.6942C55.9034 67.3371 59.4908 74.434 61.6002 76.3935C63.7129 74.4334 67.3024 67.3356 68.0338 55.6925ZM123.053 95.2491L123.066 7.70299C123.066 3.49405 120.433 0.96904 116.043 0.969637L26.498 0.981827C11.5738 0.983859 0.159543 11.9287 0.157464 26.2391L0.145234 110.418C0.143155 124.728 11.5542 135.67 26.4785 135.668L116.024 135.656C119.536 135.655 123.047 133.13 123.048 128.921L123.049 124.712C123.049 123.028 122.171 121.345 120.416 119.661C119.538 115.452 119.54 103.667 120.419 100.3C122.174 99.4581 123.053 97.7744 123.053 95.2491ZM61.6114 17.8128C81.0047 17.8102 96.7251 32.884 96.7224 51.4796C96.7197 70.0753 80.995 85.1533 61.6017 85.156C42.2084 85.1586 26.488 70.0848 26.4907 51.4892C26.4934 32.8935 42.2182 17.8155 61.6114 17.8128ZM105.492 118.822L26.4809 118.832C21.2135 118.833 17.7024 115.466 17.7032 110.416C17.7039 105.365 22.0939 101.997 26.4834 101.997L105.494 101.986L105.492 118.822Z" fill="url(#paint0_linear)"/>
<defs>
<linearGradient id="paint0_linear" x1="61.6139" y1="0.977047" x2="61.6322" y2="135.663" gradientUnits="userSpaceOnUse">
<stop stop-color="#1A3256"/>
<stop offset="0.0001" stop-color="#6E80EC"/>
<stop offset="0.779167" stop-color="#70FFD7" stop-opacity="0.84"/>
<stop offset="0.857292" stop-color="#6E80EC" stop-opacity="0.6"/>
</linearGradient>
</defs>
</svg>
