<svg width="160" height="133" viewBox="0 0 160 133" fill="none" xmlns="http://www.w3.org/2000/svg">
<path d="M69.4224 132.866L54.2523 128.276C52.6607 127.809 51.7656 126.071 52.2135 124.411L86.1789 2.4121C86.6268 0.751549 88.2933 -0.182702 89.8849 0.284093L105.055 4.87431C106.647 5.34111 107.542 7.07931 107.094 8.73986L73.1283 130.738C72.6556 132.399 71.014 133.359 69.4224 132.866ZM41.0747 103.76L51.895 91.7199C53.0392 90.4484 52.9649 88.4247 51.6966 87.2573L29.1673 66.5821L51.7027 45.9008C52.9712 44.7331 53.071 42.7094 51.9023 41.4382L41.0855 29.4012C39.9665 28.1559 38.0764 28.0784 36.8576 29.272L1.01472 64.3028C-0.253833 65.5224 -0.254139 67.624 1.01406 68.8432L36.8468 103.89C38.0652 105.083 39.9554 105.031 41.0747 103.76ZM122.45 103.904L158.293 68.8477C159.561 67.6281 159.561 65.5266 158.293 64.3073L122.461 29.2344C121.267 28.067 119.377 28.1192 118.233 29.3647L107.412 41.4047C106.268 42.6762 106.342 44.6999 107.611 45.8673L130.14 66.5684L107.605 87.2497C106.336 88.4174 106.236 90.4412 107.405 91.7123L118.222 103.749C119.341 105.021 121.231 105.072 122.45 103.904Z" fill="url(#paint0_linear)"/>
<defs>
<linearGradient id="paint0_linear" x1="79.6633" y1="0.165404" x2="79.6814" y2="132.994" gradientUnits="userSpaceOnUse">
<stop stop-color="#70FFD7"/>
<stop offset="1" stop-color="#6E80EC"/>
</linearGradient>
</defs>
</svg>
