<svg width="155" height="170" viewBox="0 0 155 170" fill="none" xmlns="http://www.w3.org/2000/svg">
<g clip-path="url(#clip0)">
<path d="M22.6076 74.2114L27.2315 74.2108C35.6887 92.8397 54.9359 105.862 77.4045 105.859C99.8731 105.855 119.124 92.8283 127.587 74.1971L132.211 74.1965C135.225 74.1961 137.691 71.8217 137.691 68.92L137.696 37.2655C137.696 34.3638 135.231 31.99 132.217 31.9905L127.593 31.9911C119.135 13.3622 99.8884 0.340318 77.4198 0.343376C54.9512 0.346435 35.7003 13.3736 27.2376 32.0047L22.6137 32.0054C19.5997 32.0058 17.1332 34.3802 17.1328 37.2819L17.1282 68.9364C17.1278 71.8381 19.5935 74.2118 22.6076 74.2114ZM36.3122 45.1929C36.3132 37.9058 43.678 32.0025 52.7545 32.0013L102.076 31.9946C111.152 31.9933 118.515 37.8946 118.514 45.1817L118.513 53.0953C118.511 70.5713 103.781 84.7519 85.6277 84.7544L69.1873 84.7566C51.0343 84.7591 36.3085 70.5825 36.311 53.1065L36.3122 45.1929ZM60.9694 68.9305L65.0812 57.0594L77.4121 53.1009L65.0824 49.1458L60.974 37.2759L56.8622 49.1469L44.5313 53.1054L56.861 57.0606L60.9694 68.9305ZM112.888 106.315C102.646 112.681 90.4868 116.408 77.4029 116.41C64.3191 116.412 52.1605 112.687 41.9204 106.325C18.8007 108.669 0.679311 127.302 0.675986 150.185L0.675526 153.351C0.674257 162.089 8.03717 169.177 17.1137 169.176L44.5144 169.172L44.5175 148.069C44.5183 142.233 49.4169 137.517 55.4793 137.516L99.3204 137.51C105.383 137.509 110.28 142.224 110.279 148.06L110.276 169.163L137.677 169.159C146.753 169.158 154.118 162.068 154.12 153.33L154.12 150.164C154.123 127.281 136.007 108.653 112.888 106.315ZM93.8388 148.062C90.8247 148.063 88.3583 150.437 88.3578 153.339C88.3574 156.241 90.8231 158.614 93.8372 158.614C96.8513 158.613 99.3177 156.239 99.3181 153.337C99.3186 150.436 96.8528 148.062 93.8388 148.062ZM60.9579 148.067C57.9438 148.067 55.4774 150.442 55.477 153.343L55.4747 169.171L66.435 169.169L66.4373 153.342C66.4377 150.44 63.972 148.066 60.9579 148.067Z" fill="url(#paint0_linear)"/>
</g>
<defs>
<linearGradient id="paint0_linear" x1="77.5432" y1="-29.9509" x2="77.6175" y2="234.175" gradientUnits="userSpaceOnUse">
<stop stop-color="#D29BEC"/>
<stop offset="1" stop-color="#41CCFF" stop-opacity="0.78"/>
</linearGradient>
<clipPath id="clip0">
<rect width="153.444" height="168.824" fill="white" transform="matrix(1 -0.000136133 -0.000145282 1 0.697754 0.353821)"/>
</clipPath>
</defs>
</svg>
