<svg width="234" height="254" viewBox="0 0 234 254" fill="none" xmlns="http://www.w3.org/2000/svg">
<path d="M33.8203 103.187L29.25 103.187C27.3106 103.187 25.4506 104.024 24.0793 105.512C22.7079 107.001 21.9375 109.02 21.9375 111.125L21.9375 119.062C21.9375 121.168 22.7079 123.187 24.0793 124.675C25.4506 126.164 27.3106 127 29.25 127L36.5351 127C36.4715 148.408 34.0254 169.729 29.25 190.5L87.75 190.5C82.9746 169.729 80.5285 148.408 80.4649 127L87.75 127C89.6894 127 91.5494 126.164 92.9207 124.675C94.2921 123.187 95.0625 121.168 95.0625 119.062L95.0625 111.125C95.0625 109.02 94.2921 107.001 92.9207 105.512C91.5494 104.024 89.6894 103.187 87.75 103.187L83.1797 103.187L98.6685 58.3505C99.0838 57.1489 99.2245 55.8558 99.0784 54.5822C98.9324 53.3085 98.504 52.0923 97.83 51.0378C97.156 49.9833 96.2564 49.1219 95.2085 48.5275C94.1605 47.9331 92.9954 47.6234 91.813 47.625L65.8125 47.625L65.8125 31.75L76.7813 31.75C77.7509 31.75 78.6809 31.3319 79.3666 30.5876C80.0523 29.8433 80.4375 28.8338 80.4375 27.7812L80.4375 19.8437C80.4375 18.7912 80.0523 17.7817 79.3666 17.0374C78.6809 16.2931 77.7509 15.875 76.7813 15.875L65.8125 15.875L65.8125 3.96875C65.8125 2.91617 65.4273 1.9067 64.7416 1.16242C64.0559 0.418135 63.1259 -2.59913e-08 62.1562 -2.5592e-08L54.8438 -2.25812e-08C53.8741 -2.2182e-08 52.9441 0.418135 52.2584 1.16242C51.5727 1.90671 51.1875 2.91617 51.1875 3.96875L51.1875 15.875L40.2188 15.875C39.2491 15.875 38.3191 16.2931 37.6334 17.0374C36.9477 17.7817 36.5625 18.7912 36.5625 19.8437L36.5625 27.7812C36.5625 28.8338 36.9477 29.8433 37.6334 30.5876C38.3191 31.3319 39.2491 31.75 40.2188 31.75L51.1875 31.75L51.1875 47.625L25.1779 47.625C23.9955 47.6234 22.8303 47.9331 21.7824 48.5275C20.7344 49.1219 19.8349 49.9833 19.1609 51.0378C18.4869 52.0923 18.0585 53.3085 17.9124 54.5822C17.7664 55.8558 17.9071 57.1489 18.3224 58.3505L33.8203 103.187ZM112.96 227.995L102.375 222.25L102.375 214.312C102.375 212.207 101.605 210.188 100.233 208.7C98.8619 207.211 97.0019 206.375 95.0625 206.375L21.9375 206.375C19.9981 206.375 18.1381 207.211 16.7668 208.7C15.3954 210.188 14.625 212.207 14.625 214.312L14.625 222.25L4.04473 227.995C2.82967 228.654 1.80767 229.667 1.09327 230.921C0.378868 232.174 0.000300833 233.62 9.67969e-08 235.094L1.01313e-07 246.062C1.0218e-07 248.168 0.770422 250.187 2.14178 251.675C3.51314 253.164 5.3731 254 7.3125 254L109.688 254C111.627 254 113.487 253.164 114.858 251.675C116.23 250.187 117 248.168 117 246.062L117 235.094C117 233.62 116.622 232.175 115.909 230.922C115.195 229.668 114.174 228.654 112.96 227.995ZM155.359 149.721L153.855 190.5L211.77 190.5L210.266 149.716L221.509 139.402C223.134 137.91 224.439 136.052 225.333 133.956C226.227 131.86 226.69 129.578 226.688 127.268L226.688 98.2266C226.688 97.4371 226.399 96.68 225.884 96.1218C225.37 95.5636 224.673 95.25 223.945 95.25L211.889 95.25C211.162 95.25 210.464 95.5636 209.95 96.1218C209.436 96.68 209.147 97.4371 209.147 98.2266L209.147 111.125L197.853 111.125L197.853 98.2266C197.853 97.4371 197.564 96.68 197.05 96.1218C196.536 95.5636 195.838 95.25 195.111 95.25L170.518 95.25C169.791 95.25 169.094 95.5636 168.579 96.1218C168.065 96.68 167.776 97.4371 167.776 98.2266L167.776 111.125L156.483 111.125L156.483 98.2266C156.483 97.4371 156.194 96.68 155.68 96.1218C155.165 95.5636 154.468 95.25 153.741 95.25L141.68 95.25C140.952 95.25 140.255 95.5636 139.741 96.1218C139.226 96.68 138.938 97.4371 138.938 98.2266L138.938 127.298C138.941 129.604 139.407 131.881 140.304 133.971C141.201 136.062 142.506 137.915 144.129 139.402L155.359 149.721ZM175.5 150.812C175.5 148.707 176.27 146.688 177.642 145.2C179.013 143.711 180.873 142.875 182.813 142.875C184.752 142.875 186.612 143.711 187.983 145.2C189.355 146.688 190.125 148.707 190.125 150.812L190.125 166.687L175.5 166.687L175.5 150.812ZM229.96 227.995L219.375 222.25L219.375 214.312C219.375 212.207 218.605 210.188 217.233 208.7C215.862 207.211 214.002 206.375 212.063 206.375L153.563 206.375C151.623 206.375 149.763 207.211 148.392 208.7C147.02 210.188 146.25 212.207 146.25 214.312L146.25 222.25L135.67 227.995C134.455 228.654 133.433 229.667 132.718 230.921C132.004 232.174 131.625 233.62 131.625 235.094L131.625 246.062C131.625 248.168 132.395 250.187 133.767 251.675C135.138 253.164 136.998 254 138.938 254L226.688 254C228.627 254 230.487 253.164 231.858 251.675C233.23 250.187 234 248.168 234 246.062L234 235.094C234 233.62 233.622 232.175 232.909 230.922C232.195 229.668 231.174 228.654 229.96 227.995Z" fill="#FFFFFF"/>
</svg>
