<svg width="279" height="278" viewBox="0 0 279 278" fill="none" xmlns="http://www.w3.org/2000/svg">
<path d="M221.48 175.958C211.893 197.505 194.307 214.482 172.437 223.306C150.566 232.13 126.122 232.11 104.267 223.25C82.4107 214.389 64.8534 197.382 55.3018 175.82C45.7501 154.257 44.9516 129.826 53.0749 107.686C61.1983 85.5456 77.6076 67.4285 98.8382 57.1599C120.069 46.8913 144.459 45.2749 166.859 52.652C189.259 60.0291 207.916 75.8224 218.89 96.6971C229.864 117.572 232.296 141.894 225.674 164.529L215.568 161.572C221.423 141.559 219.273 120.054 209.57 101.597C199.867 83.1398 183.371 69.1758 163.565 62.6531C143.76 56.1304 122.194 57.5596 103.423 66.6389C84.6513 75.7181 70.1425 91.7369 62.9601 111.313C55.7776 130.889 56.4836 152.49 64.929 171.555C73.3744 190.62 88.8981 205.657 108.222 213.492C127.547 221.326 149.159 221.344 168.497 213.542C187.834 205.74 203.383 190.728 211.86 171.677L221.48 175.958Z" fill="#1A3256"/>
<path d="M266.076 195.508C251.417 228.453 224.529 254.412 191.089 267.904C157.649 281.395 120.275 281.364 86.8578 267.817C53.4406 254.269 26.5958 228.266 11.9914 195.297C-2.61293 162.328 -3.83378 124.974 8.58666 91.1216C21.0071 57.2694 46.0967 29.5686 78.558 13.868C111.019 -1.83254 148.312 -4.30398 182.561 6.97551C216.81 18.255 245.336 42.4026 262.115 74.3197C278.894 106.237 282.613 143.425 272.487 178.033L257.036 173.512C265.989 142.913 262.7 110.032 247.865 81.8112C233.029 53.5908 207.807 32.2401 177.525 22.267C147.242 12.294 114.269 14.4791 85.5679 28.3612C56.8664 42.2433 34.6827 66.7357 23.7009 96.667C12.719 126.598 13.7985 159.626 26.7113 188.777C39.6242 217.927 63.3597 240.919 92.9064 252.897C122.453 264.875 155.498 264.903 185.065 252.974C214.632 241.044 238.405 218.092 251.367 188.964L266.076 195.508Z" fill="#1A3256"/>
</svg>
