<svg width="742" height="742" viewBox="0 0 742 742" fill="none" xmlns="http://www.w3.org/2000/svg">
<path d="M354.05 386.55L218.05 250.55C208.65 241.15 208.65 225.95 218.05 216.65L240.65 194.05C250.05 184.65 265.25 184.65 274.55 194.05L370.95 290.45L467.35 194.05C476.75 184.65 491.95 184.65 501.25 194.05L524.05 216.55C533.45 225.95 533.45 241.15 524.05 250.45L388.05 386.45C378.65 395.95 363.45 395.95 354.05 386.55ZM388.05 578.55L524.05 442.55C533.45 433.15 533.45 417.95 524.05 408.65L501.45 386.05C492.05 376.65 476.85 376.65 467.55 386.05L371.05 482.35L274.65 385.95C265.25 376.55 250.05 376.55 240.75 385.95L218.05 408.55C208.65 417.95 208.65 433.15 218.05 442.45L354.05 578.45C363.45 587.95 378.65 587.95 388.05 578.55Z" fill="#FEF9F9"/>
<path d="M742 371C742 575.898 575.898 742 371 742C166.102 742 0 575.898 0 371C0 166.102 166.102 0 371 0C575.898 0 742 166.102 742 371ZM46.4078 371C46.4078 550.267 191.733 695.592 371 695.592C550.267 695.592 695.592 550.267 695.592 371C695.592 191.733 550.267 46.4078 371 46.4078C191.733 46.4078 46.4078 191.733 46.4078 371Z" fill="#FEF9F9"/>
</svg>
