<svg width="1440" height="681" viewBox="0 0 1440 681" fill="none" xmlns="http://www.w3.org/2000/svg">
<path d="M1617.47 448.816C1462.03 564.873 1288.82 434.356 1221.57 148.001C1164.53 -94.91 819.254 25.7103 658.36 138.307C554.407 211.069 422.608 281.393 293.767 310.305C159.22 340.487 158.264 268.617 144.756 183.447C131.94 102.655 74.5998 30.521 -16.8363 0.288614L-303 85.7251C-303 85.7251 -109.789 66.5846 30.2541 276.392C170.291 486.18 500.364 298.318 590.689 255.59C681.015 212.863 1120.94 60.3929 1185.27 395.569C1249.59 730.746 1617.47 448.816 1617.47 448.816Z" fill="url(#paint0_linear)"/>
<path d="M1161.27 214.604C1071.07 54.7859 921.467 -43.4934 612.241 157.884C524.043 215.331 387.112 290.481 272.964 266.254C207.254 252.283 171.38 191.09 148.209 141.323C132.739 108.084 56.0627 0.505618 -2.00027 14C-2.04312 13.9882 -302.631 104.234 -302.631 104.234C-302.631 104.234 -113.062 106.735 57.9996 316C229.061 525.264 521.02 445.07 643.739 351.779C766.457 258.489 966.417 246.185 1108.99 438.174C1251.57 630.163 1507.06 541.729 1507.06 541.729L1535.53 468.759C1304.15 542.946 1251.47 374.405 1161.27 214.604Z" fill="url(#paint1_linear)"/>
<path opacity="0.5" d="M916.704 40.5616C980.498 57.7104 1065.52 93.917 1095.06 167.937L916.704 40.5616Z" fill="url(#paint2_linear)"/>
<path d="M605.964 100.625C559.57 106.268 529.029 142.085 543.214 174.111C567.733 229.417 622.058 304.769 739.905 331.092C934.474 374.549 1008.16 376.261 1133.82 577.725C1230.34 732.462 1457.13 673.805 1545.21 643.64C1567.39 636.037 1583.94 621.135 1589.54 603.719L1590.12 601.929C1602.82 562.5 1556.18 530.102 1503.6 541.71C1415.1 561.23 1292.75 559.821 1189.31 455.096C1130.94 396.003 1014.17 328.894 921.398 300.502C852.84 279.508 781.948 272.237 762.386 202.399C755.091 176.327 745.34 156.386 741.112 135.064C735.6 107.175 701.205 89.0531 662.858 93.7175L605.964 100.625Z" fill="url(#paint3_linear)"/>
<defs>
<linearGradient id="paint0_linear" x1="-28.4692" y1="-105.993" x2="1223.01" y2="824.885" gradientUnits="userSpaceOnUse">
<stop stop-color="#6E80EC"/>
<stop offset="0.4877" stop-color="#5CB2E2" stop-opacity="0.48"/>
<stop offset="0.9951" stop-color="#6E80EC"/>
</linearGradient>
<linearGradient id="paint1_linear" x1="-195.357" y1="508.743" x2="1431.64" y2="77.2637" gradientUnits="userSpaceOnUse">
<stop offset="0.00492611" stop-color="#6E80EC"/>
<stop offset="0.9852" stop-color="#41CCFF" stop-opacity="0.33"/>
</linearGradient>
<linearGradient id="paint2_linear" x1="925.281" y1="113.707" x2="1086.48" y2="94.79" gradientUnits="userSpaceOnUse">
<stop stop-color="white" stop-opacity="0"/>
<stop offset="0.4729" stop-color="white"/>
<stop offset="1" stop-color="white" stop-opacity="0"/>
</linearGradient>
<linearGradient id="paint3_linear" x1="1613.22" y1="567.796" x2="645.664" y2="-26.5376" gradientUnits="userSpaceOnUse">
<stop offset="0.0345" stop-color="#1A3256" stop-opacity="0.09"/>
<stop offset="0.4532" stop-color="#70FFD7" stop-opacity="0.13"/>
<stop offset="0.9852" stop-color="#F7F6FF" stop-opacity="0"/>
</linearGradient>
</defs>
</svg>
