<svg width="1883" height="888" viewBox="0 0 1883 888" fill="none" xmlns="http://www.w3.org/2000/svg">
<g clip-path="url(#clip0)">
<path d="M1896.51 652.77C1741.72 774.39 1567.5 635.293 1498.29 332.202C1439.58 75.0928 1094.84 200.269 934.575 318.196C831.027 394.403 699.593 467.847 570.844 497.544C436.393 528.545 434.957 452.58 420.87 362.475C407.504 277.002 349.638 200.383 257.928 167.82L-27.8895 256.206C-27.8895 256.206 165.346 237.267 306.899 459.943C448.445 682.598 777.523 486.254 867.634 441.699C957.745 397.145 1397 238.938 1463.61 593.609C1530.22 948.279 1896.51 652.77 1896.51 652.77Z" fill="url(#paint0_linear)"/>
<path d="M1438.39 402.19C1347.05 232.679 1196.67 127.812 888.55 338.579C800.666 398.705 664.13 477.215 549.731 450.849C483.876 435.644 447.565 370.731 424.044 317.979C408.34 282.745 330.886 168.536 272.868 182.411C272.825 182.398 -27.3961 275.77 -27.3961 275.77C-27.3961 275.77 162.338 279.68 334.93 501.989C507.523 724.298 799.175 641.491 921.367 543.713C1043.56 445.936 1243.59 434.267 1387.56 638.128C1531.53 841.989 1786.64 750.23 1786.64 750.23L1814.64 673.3C1583.57 750.162 1529.73 571.683 1438.39 402.19Z" fill="url(#paint1_linear)"/>
<path opacity="0.5" d="M1192.47 216.616C1256.43 235.166 1341.76 273.999 1371.81 352.427L1192.47 216.616Z" fill="url(#paint2_linear)"/>
<path d="M881.887 278.021C835.494 283.675 805.168 321.326 819.577 355.268C844.485 413.884 899.356 493.885 1017.47 522.491C1212.48 569.718 1286.24 572.02 1413.34 785.783C1510.96 949.965 1737.55 889.486 1825.49 858.193C1847.64 850.305 1864.1 834.666 1869.6 816.297L1870.16 814.409C1882.61 772.822 1835.71 738.269 1783.17 750.187C1694.73 770.227 1572.28 767.921 1468.05 656.549C1409.25 593.705 1291.94 521.999 1198.9 491.373C1130.15 468.728 1059.15 460.57 1039.11 386.628C1031.64 359.025 1021.74 337.884 1017.37 315.321C1011.67 285.809 977.124 266.427 938.778 271.101L881.887 278.021Z" fill="url(#paint3_linear)"/>
</g>
<defs>
<linearGradient id="paint0_linear" x1="245.577" y1="55.4161" x2="1555.7" y2="974.233" gradientUnits="userSpaceOnUse">
<stop stop-color="#6E80EC"/>
<stop offset="0.4877" stop-color="#5CB2E2" stop-opacity="0.48"/>
<stop offset="0.9951" stop-color="#6E80EC"/>
</linearGradient>
<linearGradient id="paint1_linear" x1="82.6618" y1="704.004" x2="1714.66" y2="284.564" gradientUnits="userSpaceOnUse">
<stop offset="0.00492611" stop-color="#6E80EC"/>
<stop offset="0.9852" stop-color="#41CCFF" stop-opacity="0.33"/>
</linearGradient>
<linearGradient id="paint2_linear" x1="1201.54" y1="293.979" x2="1362.74" y2="275.062" gradientUnits="userSpaceOnUse">
<stop stop-color="white" stop-opacity="0"/>
<stop offset="0.4729" stop-color="white"/>
<stop offset="1" stop-color="white" stop-opacity="0"/>
</linearGradient>
<linearGradient id="paint3_linear" x1="1893.05" y1="778.489" x2="889.142" y2="198.647" gradientUnits="userSpaceOnUse">
<stop offset="0.0345" stop-color="#1A3256" stop-opacity="0.09"/>
<stop offset="0.4532" stop-color="#70FFD7" stop-opacity="0.13"/>
<stop offset="0.9852" stop-color="#F7F6FF" stop-opacity="0"/>
</linearGradient>
<clipPath id="clip0">
<rect width="1774.21" height="1030.52" fill="white" transform="translate(0 206.795) rotate(-6.69341)"/>
</clipPath>
</defs>
</svg>
