<svg width="3209" height="1831" viewBox="0 0 3209 1831" fill="none" xmlns="http://www.w3.org/2000/svg">
<path opacity="0.3" d="M2976.77 323.721C2717.59 325.331 2210.3 347.758 2332.34 636.689C2435.86 881.787 1443.39 1074.19 1180.36 1082.3C1010.41 1087.53 887.986 1254.83 719.977 1313.78C544.534 1375.36 641.764 1405.56 685.516 1487.28C727.014 1564.8 559.975 1634.08 476.051 1719.38L305.884 1821.48C305.884 1821.48 403.985 1801.99 418.766 1531.31C433.553 1260.66 1119.9 964.797 1277.73 938.653C1411.14 916.554 2422.23 744.376 2262.87 415.529C2103.51 86.6826 2976.77 323.721 2976.77 323.721Z" fill="url(#paint0_linear)"/>
<path d="M2671.29 416.644C2790.29 420.244 2877.68 469.883 2850.83 518.48C2804.39 602.407 2688.19 718.875 2397.4 769.598C1917.31 853.34 1731.31 863.342 1470.21 1172.75C1269.65 1410.39 679.174 1347.05 447.783 1311.57C389.492 1302.63 343.41 1282.37 324.313 1257.29L322.356 1254.71C279.081 1197.94 387.968 1145.5 524.291 1157.26C753.753 1177.02 1062.96 1162.52 1295.18 997.815C1426.19 904.876 1702.74 794.205 1929.49 742.98C2097.06 705.108 2274.4 687.205 2304.19 582.383C2315.29 543.253 2334.34 512.9 2339.01 481.076C2345.09 439.45 2427.01 409.274 2525.37 412.249L2671.29 416.644Z" fill="url(#paint1_linear)"/>
<path d="M983.77 1236.16C1143.23 1342.38 1347.55 1359.93 1624.02 1011.47C1702.88 912.067 1841.73 808.186 1979.33 773.297C2058.55 753.236 2254.35 759.736 2298.45 795.309C2319.18 816.469 2352.71 839.266 2352.71 839.266C2666.23 722.764 2587.62 520.935 2587.62 520.935C2587.62 520.935 2629.39 763.808 2360.81 651.593C2092.24 539.379 1676.24 823.325 1571.34 974.333C1466.45 1125.34 1251.51 1205.5 1021.33 1095.26C791.144 985.02 493.183 1104.59 493.183 1104.59L480.994 1221.46C715.448 1033.47 824.319 1129.95 983.77 1236.16Z" fill="url(#paint2_linear)"/>
<defs>
<linearGradient id="paint0_linear" x1="695.1" y1="1769.47" x2="1104.83" y2="67.7865" gradientUnits="userSpaceOnUse">
<stop stop-color="#2B1BE6" stop-opacity="0.41"/>
<stop offset="0.4877" stop-color="#5CB2E2" stop-opacity="0.48"/>
<stop offset="0.9951" stop-color="#4619FC" stop-opacity="0.61"/>
</linearGradient>
<linearGradient id="paint1_linear" x1="292.691" y1="1133.65" x2="1608.64" y2="-580.388" gradientUnits="userSpaceOnUse">
<stop offset="0.0345" stop-color="#6E80EC" stop-opacity="0.43"/>
<stop offset="0.9852" stop-color="#70FFD7"/>
</linearGradient>
<linearGradient id="paint2_linear" x1="2363.65" y1="937.844" x2="1261.22" y2="156.664" gradientUnits="userSpaceOnUse">
<stop stop-color="#70FFD7" stop-opacity="0"/>
<stop offset="0.0001" stop-color="#6E80EC"/>
<stop offset="0.690625" stop-color="#70FFD7" stop-opacity="0.72"/>
<stop offset="0.867708" stop-color="#70FFD7"/>
</linearGradient>
</defs>
</svg>
