<svg width="1440" height="1049" viewBox="0 0 1440 1049" fill="none" xmlns="http://www.w3.org/2000/svg">
<path d="M522.227 887.514C365.078 922.134 74.6492 1028.91 -175 898.102L-155.044 49H1683.39L1858 885.347C1758.22 919.967 1202.55 1051.93 1031.47 971.366C869.533 895.105 733.087 841.062 522.227 887.514Z" fill="#4C71D1" fill-opacity="0.8"/>
<path opacity="0.1" d="M542 938.676C384 973.302 92 1080.1 -159 949.266L-138.936 100H1709.44L1885 936.508C1784.68 971.135 1226 1103.12 1054 1022.54C891.185 946.268 754 892.215 542 938.676Z" fill="url(#paint0_linear)" fill-opacity="0.95"/>
<path d="M542 838.676C384 873.302 92 980.099 -159 849.266L-138.936 0H1709.44L1885 836.508C1784.68 871.135 1226 1003.12 1054 922.543C891.185 846.268 754 792.215 542 838.676Z" fill="url(#paint1_linear)" fill-opacity="0.8"/>
<defs>
<linearGradient id="paint0_linear" x1="863" y1="100" x2="863" y2="1048.18" gradientUnits="userSpaceOnUse">
<stop stop-color="#F2F3FD"/>
<stop offset="1" stop-color="#6E80EC"/>
</linearGradient>
<linearGradient id="paint1_linear" x1="863" y1="0" x2="863" y2="948.183" gradientUnits="userSpaceOnUse">
<stop stop-color="#FBFEFF"/>
<stop offset="1" stop-color="white"/>
</linearGradient>
</defs>
</svg>
