<svg width="95" height="95" viewBox="0 0 95 95" fill="none" xmlns="http://www.w3.org/2000/svg">
<path d="M95 47.5001C95 73.7337 73.7335 95.0001 47.5 95.0001C21.2665 95.0001 3.03588e-08 73.7337 1.95575e-08 47.5001C8.7562e-09 21.2666 21.2665 0.000122062 47.5 0.000122051C73.7335 0.00012204 95 21.2666 95 47.5001ZM7.60999 47.5001C7.60999 69.5308 25.4694 87.3901 47.5 87.3901C69.5306 87.3901 87.39 69.5308 87.39 47.5001C87.39 25.4695 69.5306 7.61011 47.5 7.61011C25.4694 7.61011 7.60999 25.4695 7.60999 47.5001Z" fill="url(#paint0_linear)"/>
<path d="M33.401 71.0001L33.401 66.7601C42.7876 59.1335 48.3343 54.3068 50.041 52.2801C52.8676 48.9735 54.4943 46.5468 54.921 45.0001C55.3476 43.4535 55.561 42.0135 55.561 40.6801C55.561 37.9068 54.761 35.6135 53.161 33.8001C51.561 31.9868 49.401 31.0801 46.681 31.0801C43.961 31.0801 42.0943 31.4801 41.081 32.2801C40.441 32.8135 39.8276 35.6935 39.241 40.9201L34.921 40.4401C34.4943 38.5201 34.281 36.5201 34.281 34.4401C34.281 32.3601 34.3076 31.0535 34.361 30.5201C37.4543 28.0668 41.6943 26.8401 47.081 26.8401C52.521 26.8401 56.5743 27.9868 59.241 30.2801C61.961 32.5735 63.321 35.6935 63.321 39.6401C63.321 43.5335 61.6676 47.4535 58.361 51.4001C55.0543 55.3468 49.801 59.8001 42.601 64.7601L42.761 65.3201L47.561 65.1601C54.441 64.9468 58.3076 64.7601 59.161 64.6001C60.0676 64.3868 61.081 62.3068 62.201 58.3601L65.881 58.6801C65.9343 59.1601 65.961 59.9601 65.961 61.0801C65.961 64.7601 65.5343 68.0668 64.681 71.0001L33.401 71.0001Z" fill="black"/>
<defs>
<linearGradient id="paint0_linear" x1="14.5139" y1="11.8751" x2="85.1042" y2="77.1876" gradientUnits="userSpaceOnUse">
<stop stop-color="#595B85"/>
<stop offset="0.466667" stop-color="#595B85" stop-opacity="0.88"/>
<stop offset="1" stop-color="#595B85" stop-opacity="0.05"/>
</linearGradient>
</defs>
</svg>
