<svg width="95" height="95" viewBox="0 0 95 95" fill="none" xmlns="http://www.w3.org/2000/svg">
<path d="M95 47.4998C95 73.7333 73.7335 94.9998 47.5 94.9998C21.2665 94.9998 3.03588e-08 73.7333 1.95575e-08 47.4998C8.7562e-09 21.2662 21.2665 -0.000244149 47.5 -0.00024416C73.7335 -0.000244171 95 21.2662 95 47.4998ZM7.60999 47.4998C7.60999 69.5304 25.4694 87.3898 47.5 87.3898C69.5306 87.3898 87.39 69.5304 87.39 47.4998C87.39 25.4691 69.5306 7.60974 47.5 7.60974C25.4694 7.60974 7.60999 25.4691 7.60999 47.4998Z" fill="url(#paint0_linear)"/>
<path d="M34.4 76.04L34 71.56C40.8267 70.6533 46.24 68.9733 50.24 66.52C54.2933 64.12 56.32 61.0267 56.32 57.24C56.32 54.7333 55.3867 52.7333 53.52 51.24C51.6533 49.7467 48.8267 49 45.04 49C43.6 49 42.2133 49.1067 40.88 49.32L41.12 45.48C45.76 44.7333 49.1467 43.2667 51.28 41.08C53.4133 38.84 54.48 36.4133 54.48 33.8C54.48 31.1867 53.7067 29.08 52.16 27.48C50.6667 25.88 48.6133 25.08 46 25.08C42.5333 25.08 40.4533 25.6933 39.76 26.92C39.12 27.9333 38.6667 30.6 38.4 34.92L34.16 34.44C33.68 32.04 33.44 29.9333 33.44 28.12C33.44 26.2533 33.4667 25.0533 33.52 24.52C37.2533 22.0667 41.5467 20.84 46.4 20.84C51.2533 20.84 55.0667 21.8267 57.84 23.8C60.6667 25.7733 62.08 28.28 62.08 31.32C62.08 34.36 61.3333 36.92 59.84 39C58.3467 41.08 56.4533 42.6533 54.16 43.72L54.24 44.36C57.28 44.9467 59.7867 46.1733 61.76 48.04C63.7333 49.9067 64.72 52.44 64.72 55.64C64.72 60.9733 61.92 65.48 56.32 69.16C50.72 72.84 43.4133 75.1333 34.4 76.04Z" fill="black"/>
<defs>
<linearGradient id="paint0_linear" x1="14.5139" y1="11.8748" x2="85.1042" y2="77.1873" gradientUnits="userSpaceOnUse">
<stop stop-color="#595B85"/>
<stop offset="0.466667" stop-color="#595B85" stop-opacity="0.88"/>
<stop offset="1" stop-color="#595B85" stop-opacity="0.05"/>
</linearGradient>
</defs>
</svg>
