<svg width="216" height="236" viewBox="0 0 216 236" fill="none" xmlns="http://www.w3.org/2000/svg">
<path d="M148.497 44.2499C148.497 19.811 130.365 -5.36762e-08 107.998 -4.44668e-08C85.6305 -3.52573e-08 67.4987 19.811 67.4987 44.2499C67.4987 68.6887 85.6305 88.4998 107.998 88.4998C130.365 88.4998 148.497 68.6887 148.497 44.2499ZM98.5439 111.132C73.5145 94.3905 32.9731 89.7904 12.5716 88.5228C5.71629 88.0987 3.86231e-08 93.8051 4.15894e-08 101.01L8.38734e-08 203.706C8.65931e-08 210.311 4.88944 215.82 11.1753 216.174C29.594 217.23 66.8574 221.097 92.6124 235.271C96.5653 237.447 101.252 234.483 101.252 229.8L101.252 116.414C101.248 114.261 100.274 112.289 98.5439 111.132ZM203.424 88.5228C183.027 89.7858 142.481 94.3905 117.456 111.132C115.726 112.289 114.752 114.34 114.752 116.492L114.752 229.786C114.752 234.483 119.452 237.451 123.417 235.271C149.168 221.111 186.41 217.244 204.825 216.188C211.111 215.829 216 210.321 216 203.715L216 101.01C215.996 93.8051 210.279 88.0987 203.424 88.5228Z" fill="#FFFFFF"/>
</svg>
