<svg width="519" height="258" viewBox="0 0 519 258" fill="none" xmlns="http://www.w3.org/2000/svg">
<g filter="url(#filter0_f)">
<path fill-rule="evenodd" clip-rule="evenodd" d="M362.728 150.419L307.827 134.044L298.398 111.708L296.732 123.27L274.773 109.985L283.335 100.644L270.562 70.5047L320.175 107.112L322.643 125.848L362.728 150.419ZM91.2131 125.779L90.4398 126.511L88.6692 125.577L91.2131 125.779ZM379.04 190.759C352.551 188.752 325.542 180.968 297.457 166.005C271.496 152.172 243.913 142.243 215.626 136.216L240.678 119.541L214.995 81.8543L232.358 61.9844L221.505 37.3161L172.312 59.243L222.048 14.1906L388.557 145.756L386.15 157.139L393.91 155.219L385.074 162.226L382.48 174.491L381.254 180.292L390.429 177.318L379.713 187.576L379.04 190.759ZM405.776 189.171L396.94 184.513L406.598 185.279L405.776 189.171ZM35.4844 159.259C236.369 111.69 238.557 278.346 392.167 241.972C243.888 307.046 227.241 138.444 35.4844 159.259ZM458.791 139.247L329.297 27.7238L293.125 58.5578L222.953 1L123.215 95.4683L122.849 93.7394L113.036 90.164L122.11 90.634L119.511 77.9538L113.036 75.7099H119.036L113.036 47.338L108.37 69.4053L113.036 68.2371L107.974 71.2754L105.277 84.0311L113.036 82.1122L104.201 89.118L101.606 101.383L100.38 107.184L109.556 104.21L98.8394 114.471L97.8389 119.2L97.0679 115.554L95.4512 107.911L85.6378 104.335L94.7117 104.806L92.1129 92.1257L85.6378 89.8817H91.6377L85.6378 61.5099L80.9712 83.5771L85.6378 82.409L80.5757 85.4472L77.8787 98.2029L85.6378 96.2847L76.8025 103.289L74.2085 115.554L72.9817 121.356L82.1578 118.382L71.4406 128.642L69.1545 139.452C67.8728 139.785 66.5928 140.132 65.3144 140.48L54.0325 134.531L64.7295 135.38L62.4313 124.509L60.8137 116.865L51.0012 113.29L60.0742 113.76L57.4762 101.079L51.0012 98.8354H57.0018L51.0012 70.4643L46.3345 92.5316L51.0012 91.3627L45.9398 94.4017L43.242 107.157L51.0012 105.238L42.1658 112.243L39.5727 124.509L38.3458 130.31L47.5211 127.335L36.8048 137.597L34.0022 150.846C22.7679 155.231 11.7446 160.28 1 166.005C51.7229 150.906 94.9107 142.007 136.763 143.741L137.76 139.022L143.119 133.892L138.53 135.378L139.144 132.478L140.441 126.346L144.859 122.843L140.979 123.802L142.328 117.425L144.859 115.904L142.526 116.49L144.859 105.456L147.859 119.641H144.859L148.096 120.764L149.396 127.104L144.859 126.869L149.765 128.656L150.573 132.478L151.723 137.914L146.374 137.489L152.293 140.611L153.218 144.985C157.222 145.427 161.22 145.976 165.218 146.631L175.932 136.373L166.758 139.346L167.984 133.545L170.578 121.28L179.413 114.275L171.653 116.193L174.351 103.438L179.413 100.4L174.747 101.568L179.413 79.5004L185.413 107.872H179.413L185.888 110.116L188.486 122.796L179.413 122.326L189.226 125.901L190.842 133.545L193.142 144.417L182.443 143.567L194.282 149.81L195.074 153.553C220.699 161.26 246.903 173.699 275.101 191.895C348.023 238.959 463.509 221.148 518 154.847C494.663 167.282 471.69 177.134 448.699 183.444L448.3 181.556L442.38 178.435L447.73 178.859L446.579 173.423L445.771 169.602L440.865 167.814L445.402 168.049L444.102 161.708L440.865 160.585H443.866L440.865 146.4L438.531 157.435L440.865 156.85L438.334 158.368L436.986 164.749L440.865 163.788L436.447 167.291L435.15 173.423L434.537 176.323L439.125 174.836L433.766 179.967L432.206 187.346H432.214C431.744 187.439 431.272 187.53 430.801 187.622L430.262 185.063L420.861 180.105L429.355 180.779L427.529 172.147L426.246 166.076L418.453 163.237L425.659 163.61L423.595 153.54L418.453 151.757H423.217L418.453 129.228L414.747 146.752L418.453 145.824L414.432 148.237L412.291 158.366L418.453 156.843L411.437 162.406L409.377 172.147L408.403 176.753L415.691 174.391L407.179 182.539L407.109 182.865L405.339 174.491L403.722 166.847L393.91 163.272L402.983 163.742L400.384 151.062L393.91 148.818H399.91L393.91 120.446L389.243 142.513L393.91 141.343L388.847 144.382L388.584 145.621L345.475 106.964L402.004 113.374L349.556 85.2809L352.63 97.443L324.235 73.9748L309.742 74.9225L301.808 67.8076L348.107 73.6323L344.49 54.4468L458.791 139.247Z" fill="url(#paint0_linear)"/>
</g>
<path d="M149.26 110.503C152.311 111.207 155.384 109.186 156.122 105.99C156.859 102.795 154.982 99.631 151.931 98.9269C148.881 98.2229 145.807 100.244 145.07 103.44C144.332 106.635 146.209 109.799 149.26 110.503ZM165.223 154.83C163.703 154.48 162.162 155.483 161.792 157.087C161.425 158.679 159.881 159.694 158.361 159.343L150.36 157.497L158.26 136.661C159.738 136.405 161.025 135.242 161.398 133.626C161.89 131.492 160.642 129.387 158.604 128.917L153.538 127.748L152.014 120.639C151.284 117.232 149.157 114.366 146.315 112.859L138.708 108.411C135.639 106.839 132.068 106.815 128.93 108.327L123.513 110.938C121.604 111.856 120.733 114.208 121.584 116.195C121.64 116.322 121.744 116.397 121.802 116.512L108.038 147.73L103.099 146.59C101.579 146.24 100.038 147.243 99.668 148.847C99.2979 150.451 100.244 152.028 101.763 152.379L157.025 165.131C161.596 166.186 166.213 163.149 167.318 158.362C167.686 156.77 166.743 155.181 165.223 154.83ZM133.896 153.697L122.74 151.123L130.234 141.295L128.063 139.142C126.871 137.953 126.012 136.523 125.441 135.006L114.577 149.239L111.791 148.596L125.087 118.464C125.587 118.453 126.1 118.33 126.59 118.1L132.006 115.489C133.057 114.982 134.232 114.986 135.089 115.425L136.659 116.346L129.909 125.889C127.638 129.112 127.978 133.573 130.702 136.271L139.091 144.583L133.896 153.697ZM146.629 156.636L141.61 155.478L146.428 147C147.686 144.649 147.293 141.726 145.455 139.866L139.413 133.887L145.196 125.277L146.381 130.808C146.848 132.986 148.499 134.714 150.595 135.197L154.428 136.082L146.629 156.636Z" fill="black"/>
<path d="M264.763 169.857C268.15 170.119 271.133 167.289 271.423 163.539C271.713 159.789 269.201 156.534 265.814 156.272C262.428 156.01 259.445 158.84 259.154 162.59C258.864 166.34 261.377 169.595 264.763 169.857ZM270.193 220.971C269.095 219.548 267.152 219.398 265.861 220.636C264.182 222.229 261.794 222.514 260.002 221.421L243.415 210.144L250.511 200.187C252.342 197.624 252.302 193.991 250.408 191.552L245.688 185.421L232.595 176.849C232.007 179.637 232.592 182.543 234.262 184.722L243.036 196.107L236.417 205.389L212.245 188.955C210.816 187.99 208.913 188.484 208.004 190.093C207.096 191.703 207.525 193.8 208.967 194.766L256.835 227.298C258.295 228.194 259.877 228.686 261.487 228.811C264.452 229.04 267.465 227.992 269.823 225.754C271.114 224.53 271.28 222.379 270.193 220.971ZM224.938 166.149L223.222 169.219C224.982 170.395 227.156 170.221 228.744 168.963L234.52 172.742C234.506 172.755 234.505 172.769 234.491 172.782L248.502 181.952L252.785 180.433L253.394 183.199C253.773 184.951 254.764 186.437 256.158 187.356L263.266 192.035C265.211 193.31 267.722 192.593 268.905 190.435C270.088 188.277 269.48 185.497 267.547 184.223L261.175 180.014L259.55 172.6C258.78 169.095 254.943 164.186 249.18 166.217L238.447 170.013L230.799 165.008C230.996 162.959 230.192 160.89 228.518 159.764L226.861 162.725L226.836 162.723L222.516 161.392C222.29 161.318 222.041 161.384 221.858 161.583C221.592 161.876 221.581 162.345 221.841 162.635L224.938 166.149Z" fill="black"/>
<defs>
<filter id="filter0_f" x="0" y="0" width="519" height="258" filterUnits="userSpaceOnUse" color-interpolation-filters="sRGB">
<feFlood flood-opacity="0" result="BackgroundImageFix"/>
<feBlend mode="normal" in="SourceGraphic" in2="BackgroundImageFix" result="shape"/>
<feGaussianBlur stdDeviation="0.5" result="effect1_foregroundBlur"/>
</filter>
<linearGradient id="paint0_linear" x1="300.291" y1="161.229" x2="232.62" y2="23.1779" gradientUnits="userSpaceOnUse">
<stop stop-color="white"/>
<stop offset="1" stop-color="#140A0A" stop-opacity="0.93"/>
</linearGradient>
</defs>
</svg>
