<svg width="192" height="210" viewBox="0 0 192 210" fill="none" xmlns="http://www.w3.org/2000/svg">
<path d="M50.3899 68.6419L59.0333 72.1897L60.5899 72.1897L62.3299 61.4766C62.5699 60.0083 62.9299 58.3676 63.3999 56.6409L56.6366 39.997L64.5699 10.7165C65.4999 7.27941 63.9933 3.56345 61.1966 2.41503L56.1399 0.339672C53.3466 -0.808747 50.3232 1.04923 49.3932 4.49039L40.7632 36.3508C39.8695 39.653 40.0769 43.2565 41.3399 46.3708L50.3899 68.6419ZM191.104 143.301L173.52 110.85C172.546 109.053 171.227 107.579 169.679 106.559C168.131 105.54 166.403 105.006 164.647 105.006L138.667 105.006L161.663 95.0145C163.914 94.0908 165.85 92.271 167.167 89.8425L185.034 56.8624C186.667 53.8478 186.004 49.7709 183.553 47.7612L179.117 44.119C176.667 42.1093 173.353 42.9255 171.72 45.9401L154.867 77.0418L134.7 85.3145L122.667 85.3145L119.21 64.0482C118.48 59.5489 113.42 39.3777 96 39.3777C78.58 39.3777 73.52 59.5489 72.7899 64.0482L69.3333 85.3145L57.2999 85.3145L37.1365 77.0418L20.2798 45.9401C18.6465 42.9255 15.3365 42.1093 12.8832 44.119L8.44648 47.7612C5.99648 49.7709 5.33314 53.8437 6.96648 56.8624L24.8332 89.8425C26.1497 92.271 28.086 94.0908 30.3365 95.0145L53.3332 105.002L27.3532 105.002C25.597 105.002 23.868 105.536 22.3196 106.555C20.7712 107.575 19.4511 109.049 18.4765 110.846L0.896464 143.301C-0.736872 146.316 -0.0768709 150.393 2.37647 152.403L6.81314 156.045C9.26315 158.055 12.5765 157.238 14.2098 154.224L30.2099 124.693L45.8966 124.693L25.6199 164.613C24.5606 166.699 23.9992 169.109 23.9998 171.569L23.9998 203.438C23.9998 207.063 26.3865 210 29.3332 210L34.6665 210C37.6132 210 39.9999 207.063 39.9999 203.438L39.9999 173.452L64.6933 124.837C64.3566 130.599 63.9999 136.366 63.9999 142.149C63.9999 163.916 77.5866 183.75 96 183.75C114.413 183.75 128 163.916 128 142.149C128 136.366 127.64 130.599 127.307 124.837L152 173.452L152 203.438C152 207.063 154.387 210 157.333 210L162.667 210C165.613 210 168 207.063 168 203.438L168 171.565C168 169.104 167.437 166.692 166.38 164.609L146.103 124.689L161.79 124.689L177.79 154.22C179.424 157.234 182.737 158.05 185.187 156.041L189.624 152.399C192.077 150.389 192.737 146.316 191.104 143.301ZM135.363 39.997L128.6 56.6409C129.07 58.3676 129.43 60.0083 129.67 61.4766L131.41 72.1897L132.967 72.1897L141.61 68.6419L150.66 46.3708C151.286 44.829 151.66 43.1506 151.758 41.4314C151.857 39.7121 151.68 37.9857 151.237 36.3508L142.607 4.49039C141.677 1.05333 138.653 -0.808748 135.86 0.339672L130.803 2.41503C128.01 3.56345 126.5 7.2794 127.43 10.7165L135.363 39.997Z" fill="#FFFFFF"/>
</svg>
