<svg width="1440" height="642" viewBox="0 0 1440 642" fill="none" xmlns="http://www.w3.org/2000/svg">
<path d="M1782.13 25.6142C1892.81 42.1764 1968.93 97.9456 1938.52 140.052C1885.94 212.764 1744.68 282.169 1467.66 296.921C1010.29 321.272 809.073 265.476 531.3 523.546C317.935 721.757 -206.307 623.116 -418.401 564.488C-471.829 549.713 -486.115 570.201 -501.183 544.813L-502.726 542.203C-536.876 484.722 -429.464 448.165 -303.505 474.22C-91.4829 518.05 198.75 538.96 433.635 411.941C566.159 340.266 836.482 268.309 1053.78 245.977C1214.37 229.457 1381.88 232.551 1421.22 138.603C1435.88 103.53 1457 77.4827 1464.87 48.4745C1475.12 10.5279 1554.92 -8.36794 1646.4 5.32183L1782.13 25.6142Z" fill="url(#paint0_linear)"/>
<defs>
<linearGradient id="paint0_linear" x1="-554.719" y1="450.7" x2="773.209" y2="-984.608" gradientUnits="userSpaceOnUse">
<stop stop-color="#41CCFF"/>
<stop offset="0.294792" stop-color="#70FFD7" stop-opacity="0.13"/>
<stop offset="0.742708" stop-color="#EAF0F2"/>
</linearGradient>
</defs>
</svg>