<svg width="1440" height="1418" viewBox="0 0 1440 1418" fill="none" xmlns="http://www.w3.org/2000/svg">
<path opacity="0.3" d="M-749.314 123.806C-490.865 106.037 16.4481 90.4701 -83.5947 387.58C-168.46 639.616 835.16 757.202 1097.93 745.629C1267.72 738.138 1402.25 895.734 1574.12 941.938C1753.59 990.198 1658.93 1027.57 1621.43 1112.29C1585.86 1192.66 1757.54 1249.23 1847.56 1327.98L2024.81 1417.03C2024.81 1417.03 1925.57 1404.93 1890.6 1136.24C1855.63 867.574 1149.42 623.985 990.145 609.725C855.519 597.671 -165.138 501.635 -30.883 161.95C103.372 -177.735 -749.314 123.806 -749.314 123.806Z" fill="url(#paint0_linear)"/>
<path d="M-437.887 193.591C-556.224 206.074 -639.625 262.084 -609.225 308.514C-556.667 388.696 -432.139 496.098 -138.512 524.919C346.279 572.499 532.41 568.566 815.79 857.445C1033.46 1079.32 1617.27 972.042 1845.26 919.386C1902.69 906.114 1947.1 882.474 1964.26 856.052L1966.02 853.337C2004.91 793.519 1892.46 749.389 1757.46 771.296C1530.23 808.142 1220.94 816.808 977.173 669.998C839.638 587.157 555.722 497.519 325.881 463.411C156.034 438.189 -22.067 433.6 -59.5936 331.347C-73.5833 293.175 -94.8364 264.345 -101.88 232.974C-111.048 191.939 -194.959 167.985 -292.771 178.303L-437.887 193.591Z" fill="url(#paint1_linear)"/>
<path d="M1305.38 884.285C1154.38 1002.08 952.037 1034.85 650.423 708.186C564.398 615.006 418.23 521.844 278.474 497.354C198.014 483.281 3.33832 504.395 -37.962 543.149C-57.0416 565.79 -88.7596 591.019 -88.7596 591.019C-409.963 498.333 -346.691 291.286 -346.691 291.286C-346.691 291.286 -370.169 536.488 -110.862 404.564C148.445 272.641 584.315 524.562 700.157 667.236C815.999 809.911 1036.22 873.743 1257.41 746.655C1478.61 619.568 1784.53 716.474 1784.53 716.474L1805.42 832.053C1557.68 662.206 1456.37 766.505 1305.38 884.285Z" fill="url(#paint2_linear)"/>
<defs>
<linearGradient id="paint0_linear" x1="1632.97" y1="1394.27" x2="1097.38" y2="-271.222" gradientUnits="userSpaceOnUse">
<stop stop-color="#2B1BE6" stop-opacity="0.41"/>
<stop offset="0.4877" stop-color="#5CB2E2" stop-opacity="0.48"/>
<stop offset="0.9951" stop-color="#4619FC" stop-opacity="0.61"/>
</linearGradient>
<linearGradient id="paint1_linear" x1="1986.54" y1="730.455" x2="546.766" y2="-879.619" gradientUnits="userSpaceOnUse">
<stop offset="0.0345" stop-color="#6E80EC" stop-opacity="0.43"/>
<stop offset="0.9852" stop-color="#70FFD7"/>
</linearGradient>
<linearGradient id="paint2_linear" x1="-92.2874" y1="690.092" x2="948.141" y2="-170.944" gradientUnits="userSpaceOnUse">
<stop stop-color="#70FFD7" stop-opacity="0"/>
<stop offset="0.0001" stop-color="#6E80EC"/>
<stop offset="0.690625" stop-color="#70FFD7" stop-opacity="0.72"/>
<stop offset="0.867708" stop-color="#70FFD7"/>
</linearGradient>
</defs>
</svg>
